<?xml version="1.0" standalone="no"?>
<!DOCTYPE svg PUBLIC "-//W3C//DTD SVG 20010904//EN"
 "http://www.w3.org/TR/2001/REC-SVG-20010904/DTD/svg10.dtd">
<svg version="1.0" xmlns="http://www.w3.org/2000/svg"
 width="67.000000pt" height="90.000000pt" viewBox="0 0 67.000000 90.000000"
 preserveAspectRatio="xMidYMid meet">

<g transform="translate(0.000000,90.000000) scale(0.100000,-0.100000)"
fill="#000000" stroke="none">
<path d="M248 786 c-60 -16 -113 -57 -141 -109 -21 -40 -22 -53 -22 -257 l0
-215 36 -3 c29 -2 53 6 108 39 l71 43 0 48 c0 26 -3 48 -7 48 -5 0 -33 -16
-63 -35 l-55 -34 -3 150 c-2 120 1 155 13 179 46 89 183 93 235 7 17 -27 20
-51 20 -156 l0 -123 43 25 42 25 0 109 c-1 92 -4 114 -23 150 -47 90 -154 136
-254 109z"/>
<path d="M220 615 c-15 -18 -10 -45 13 -59 34 -22 73 27 47 59 -16 19 -44 19
-60 0z"/>
<path d="M342 621 c-8 -4 -12 -21 -10 -37 2 -25 7 -29 32 -29 36 0 56 27 40
53 -13 19 -43 26 -62 13z"/>
<path d="M483 340 c-27 -16 -33 -26 -33 -55 l0 -35 -160 -80 -160 -80 0 -45
c0 -25 4 -45 8 -45 5 0 76 31 158 69 l149 70 3 -70 3 -69 39 20 40 20 0 160
c0 88 -3 160 -7 160 -5 0 -23 -9 -40 -20z"/>
</g>
</svg>
